<svg width="923" height="1053" viewBox="0 0 923 1053" fill="none" xmlns="http://www.w3.org/2000/svg">
<path d="M857.955 215.098L525.659 17.8101C506.273 6.24799 484.121 0.143738 461.549 0.143738C438.977 0.143738 416.825 6.24799 397.439 17.8101L65.077 215.098C45.4248 226.954 29.1879 243.709 17.9557 263.724C6.72346 283.739 0.880949 306.328 1.00008 329.279V723.788C0.89249 746.728 6.74049 769.303 17.9721 789.305C29.2038 809.307 45.4346 826.052 65.077 837.902L397.372 1035.12C416.761 1046.68 438.912 1052.78 461.483 1052.78C484.053 1052.78 506.204 1046.68 525.593 1035.12L857.888 837.902C877.553 826.055 893.803 809.303 905.047 789.287C916.291 769.272 922.144 746.679 922.032 723.721V329.279C922.151 306.328 916.308 283.739 905.076 263.724C893.844 243.709 877.607 226.954 857.955 215.098V215.098Z" fill="white"/>
<path d="M857.955 215.098L525.659 17.8101C506.273 6.24799 484.121 0.143738 461.549 0.143738C438.977 0.143738 416.825 6.24799 397.439 17.8101L65.077 215.098C45.4248 226.954 29.1879 243.709 17.9557 263.724C6.72346 283.739 0.880949 306.328 1.00008 329.279V723.788C0.89249 746.728 6.74049 769.303 17.9721 789.305C29.2038 809.307 45.4346 826.052 65.077 837.902L397.372 1035.12C416.761 1046.68 438.912 1052.78 461.483 1052.78C484.053 1052.78 506.204 1046.68 525.593 1035.12L857.888 837.902C877.553 826.055 893.803 809.303 905.047 789.287C916.291 769.272 922.144 746.679 922.032 723.721V329.279C922.151 306.328 916.308 283.739 905.076 263.724C893.844 243.709 877.607 226.954 857.955 215.098V215.098ZM409.017 1014.96L76.7214 817.741C60.5775 807.958 47.2398 794.165 38.0053 777.701C28.7708 761.237 23.9537 742.664 24.0225 723.788V329.279C23.9472 310.401 28.7615 291.825 37.9966 275.361C47.2318 258.896 60.573 245.103 76.7214 235.326L409.017 38.0379C424.891 28.5675 443.031 23.5675 461.516 23.5675C480 23.5675 498.141 28.5675 514.015 38.0379L846.044 235.326C859.567 243.516 871.139 254.559 879.954 267.683C888.769 280.807 894.613 295.697 897.08 311.313C886.034 287.825 861.215 281.371 832.271 298.005L518.14 492.565C478.949 515.388 450.071 541.139 450.005 588.381V975.771C450.005 1004.05 461.383 1022.35 478.949 1027.74C473.197 1028.79 467.364 1029.35 461.516 1029.4C443.037 1029.39 424.903 1024.4 409.017 1014.96V1014.96Z" fill="#2F3A3E"/>
<path d="M770.855 761.915L688.081 811.42C686.996 811.856 686.06 812.597 685.387 813.553C684.714 814.51 684.332 815.641 684.288 816.809V838.568C684.288 841.229 686.085 842.294 688.28 841.029L772.319 789.928C773.327 789.172 774.1 788.145 774.548 786.967C774.996 785.789 775.099 784.508 774.848 783.274V764.177C774.781 761.715 772.851 760.65 770.855 761.915V761.915Z" fill="#3AB14A"/>
<path d="M594.66 579.665C597.322 578.334 599.518 579.665 599.584 583.457L599.85 612.335C609.804 607.813 620.909 606.466 631.656 608.476C633.719 609.008 634.584 611.803 633.785 615.13L627.464 640.481C626.985 642.394 625.996 644.142 624.603 645.538C624.113 646.021 623.552 646.425 622.939 646.736C622.187 647.143 621.319 647.283 620.477 647.135C609.998 644.815 599.029 646.575 589.803 652.059C583.192 655.037 577.556 659.82 573.542 665.858C569.528 671.897 567.3 678.945 567.113 686.193C567.113 699.501 573.767 703.161 596.989 703.56C627.664 704.092 640.971 717.467 641.304 748.407C640.943 764.364 637.114 780.051 630.082 794.379C623.05 808.708 612.984 821.334 600.582 831.381L601.115 859.727C601.091 861.459 600.635 863.159 599.786 864.67C598.938 866.181 597.724 867.455 596.257 868.377L579.489 878.025C576.828 879.356 574.632 878.025 574.565 874.299V846.419C560.193 852.408 545.621 853.805 536.306 850.079C534.576 849.413 533.777 846.818 534.509 843.824L540.564 818.207C541.024 816.179 542.065 814.33 543.558 812.883C544.032 812.43 544.57 812.049 545.155 811.752C545.584 811.56 546.049 811.46 546.519 811.46C546.99 811.46 547.454 811.56 547.883 811.752C559.745 814.968 572.397 813.366 583.082 807.294C590.648 803.645 597.071 797.997 601.657 790.96C606.243 783.923 608.816 775.765 609.099 767.371C609.099 752.998 601.181 747.01 582.484 746.877C558.33 746.877 535.906 742.219 535.441 706.954C535.715 691.738 539.353 676.771 546.095 663.127C552.836 649.484 562.513 637.501 574.432 628.038L573.235 599.027C573.229 597.271 573.673 595.542 574.523 594.005C575.373 592.468 576.601 591.173 578.092 590.244L594.66 579.665Z" fill="white"/>
</svg>
