<svg width="1556" height="1751" viewBox="0 0 1556 1751" fill="none" xmlns="http://www.w3.org/2000/svg">
<g clip-path="url(#clip0)">
<path d="M1410.25 1580.83L777.991 1751.07L145.722 1580.83L-0.179443 0.18158H1556.17L1410.25 1580.83Z" fill="#2062AF"/>
<path d="M777.986 128.212V1615.29L779.416 1615.68L1291.08 1477.9L1409.18 128.212H777.986V128.212Z" fill="#3C9CD7"/>
<path d="M777.424 523.438L324.895 711.904L339.902 898.5L777.424 711.431L1242.83 512.446L1262.13 321.566L777.424 523.438Z" fill="white"/>
<path d="M324.891 711.904L339.898 898.5L777.42 711.431V523.438L324.891 711.904V711.904Z" fill="url(#paint0_linear)"/>
<path d="M1262.13 321.571L777.424 523.438V711.431L1242.83 512.446L1262.13 321.571Z" fill="url(#paint1_linear)"/>
<path d="M325.587 711.904L340.598 898.5L1011.92 900.64L996.903 1149.43L775.999 1211.62L563.646 1158L550.779 1003.58H353.465L379.204 1301.7L778.144 1419.66L1174.92 1303.84L1226.4 711.904H325.587V711.904Z" fill="url(#paint2_linear)"/>
<path opacity="0.05" d="M777.424 711.904H324.895L339.902 898.5L777.424 899.897V711.904ZM777.424 1211.03L775.28 1211.63L562.955 1158.01L550.088 1003.59H352.779L378.513 1301.71L777.424 1419.66V1211.03Z" fill="black"/>
<path d="M284.14 321.571H1262.13L1242.83 512.451H307.73L284.14 321.571V321.571Z" fill="url(#paint3_linear)"/>
<path opacity="0.05" d="M777.424 321.571H284.14L307.73 512.451H777.424V321.571V321.571Z" fill="black"/>
</g>
<defs>
<linearGradient id="paint0_linear" x1="551.155" y1="898.505" x2="551.155" y2="523.443" gradientUnits="userSpaceOnUse">
<stop offset="0.387" stop-color="#D1D3D4" stop-opacity="0"/>
<stop offset="1" stop-color="#D1D3D4"/>
</linearGradient>
<linearGradient id="paint1_linear" x1="1019.77" y1="711.436" x2="1019.77" y2="321.575" gradientUnits="userSpaceOnUse">
<stop offset="0.387" stop-color="#D1D3D4" stop-opacity="0"/>
<stop offset="1" stop-color="#D1D3D4"/>
</linearGradient>
<linearGradient id="paint2_linear" x1="325.587" y1="1065.79" x2="1226.39" y2="1065.79" gradientUnits="userSpaceOnUse">
<stop stop-color="#E8E7E5"/>
<stop offset="1" stop-color="white"/>
</linearGradient>
<linearGradient id="paint3_linear" x1="284.14" y1="417.011" x2="1262.13" y2="417.011" gradientUnits="userSpaceOnUse">
<stop stop-color="#E8E7E5"/>
<stop offset="1" stop-color="white"/>
</linearGradient>
<clipPath id="clip0">
<rect width="1556" height="1751" fill="white"/>
</clipPath>
</defs>
</svg>
