<svg width="1025" height="1042" viewBox="0 0 1025 1042" fill="none" xmlns="http://www.w3.org/2000/svg">
<path d="M1004.87 474.691L557.695 20.4629C551.571 14.2399 544.3 9.30346 536.298 5.9355C528.296 2.56753 519.719 0.834045 511.057 0.834045C502.395 0.834045 493.817 2.56753 485.815 5.9355C477.813 9.30346 470.542 14.2399 464.418 20.4629L371.563 114.799L489.355 234.447C503.2 229.664 518.088 228.915 532.331 232.286C546.574 235.657 559.604 243.012 569.943 253.52C580.337 264.093 587.595 277.423 590.886 291.987C594.177 306.552 593.369 321.763 588.554 335.883L702.058 451.205C729.523 441.596 761.218 447.816 783.146 470.131C790.436 477.532 796.22 486.32 800.165 495.993C804.111 505.665 806.142 516.033 806.142 526.503C806.142 536.973 804.111 547.341 800.165 557.013C796.22 566.686 790.436 575.474 783.146 582.875C770.32 595.917 753.44 604.04 735.382 605.862C717.323 607.685 699.2 603.093 684.099 592.869C668.998 582.645 657.851 567.421 652.556 549.787C647.261 532.154 648.146 513.202 655.059 496.156L549.197 388.617L549.188 671.625C556.862 675.48 563.871 680.572 569.943 686.703C577.232 694.107 583.015 702.896 586.96 712.571C590.906 722.245 592.936 732.614 592.936 743.085C592.936 753.556 590.906 763.925 586.96 773.599C583.015 783.273 577.232 792.063 569.943 799.467C539.276 830.619 489.576 830.619 458.957 799.467C449.81 790.181 443.063 778.744 439.316 766.171C435.57 753.598 434.939 740.279 437.481 727.399C440.023 714.519 445.659 702.477 453.887 692.343C462.115 682.208 472.68 674.297 484.644 669.311V383.666C475.02 379.674 466.284 373.755 458.957 366.264C435.732 342.699 430.146 308.08 442.048 279.105L325.938 161.137L19.3324 472.582C13.2056 478.806 8.34559 486.194 5.02977 494.326C1.71396 502.457 0.00732422 511.173 0.00732422 519.975C0.00732422 528.776 1.71396 537.492 5.02977 545.623C8.34559 553.755 13.2056 561.144 19.3324 567.367L466.504 1021.61C478.874 1034.17 495.65 1041.23 513.143 1041.23C530.635 1041.23 547.411 1034.17 559.781 1021.61L1004.87 569.486C1017.24 556.913 1024.18 539.865 1024.18 522.089C1024.18 504.313 1017.24 487.265 1004.87 474.691" fill="#DE4C36"/>
</svg>
