<svg width="1338" height="1723" viewBox="0 0 1338 1723" fill="none" xmlns="http://www.w3.org/2000/svg">
<path d="M442.37 1315.51C442.37 1315.51 377.142 1353.31 488.791 1366.1C624.049 1381.48 693.179 1379.27 842.235 1351.16C842.235 1351.16 881.423 1375.64 936.152 1396.85C602.008 1539.55 179.917 1388.59 442.37 1315.51ZM401.539 1129.3C401.539 1129.3 328.38 1183.26 440.111 1194.78C584.599 1209.63 698.704 1210.84 896.15 1172.96C896.15 1172.96 923.464 1200.55 966.406 1215.63C562.401 1333.35 112.417 1224.92 401.539 1129.3" fill="#5382A1"/>
<path d="M745.755 813.417C828.088 907.872 724.127 992.874 724.127 992.874C724.127 992.874 933.176 885.335 837.169 750.672C747.498 625.085 678.733 562.692 1051 347.556C1051.01 347.551 466.661 492.974 745.755 813.417" fill="#E76F00"/>
<path d="M1187.69 1453.25C1187.69 1453.25 1235.96 1492.88 1134.53 1523.54C941.655 1581.76 331.771 1599.34 162.347 1525.86C101.444 1499.46 215.655 1462.82 251.581 1455.13C289.049 1447.04 310.46 1448.54 310.46 1448.54C242.73 1401 -127.323 1541.89 122.492 1582.25C803.773 1692.34 1364.41 1532.68 1187.69 1453.25V1453.25ZM473.737 936.359C473.737 936.359 163.511 1009.78 363.879 1036.44C448.48 1047.73 617.13 1045.18 774.219 1032.06C902.604 1021.27 1031.52 998.329 1031.52 998.329C1031.52 998.329 986.253 1017.65 953.501 1039.93C638.472 1122.49 29.895 1084.08 205.097 999.631C353.265 928.263 473.737 936.359 473.737 936.359V936.359ZM1030.24 1246.32C1350.49 1080.5 1202.42 921.148 1099.07 942.621C1073.74 947.875 1062.44 952.427 1062.44 952.427C1062.44 952.427 1071.85 937.748 1089.8 931.394C1294.26 859.769 1451.5 1142.64 1023.8 1254.68C1023.8 1254.68 1028.77 1250.27 1030.24 1246.32Z" fill="#5382A1"/>
<path d="M837.169 0.161621C837.169 0.161621 1014.52 176.941 668.956 448.791C391.846 666.852 605.766 791.187 668.841 933.25C507.092 787.823 388.386 659.811 468.023 540.665C584.907 365.769 908.728 280.973 837.169 0.161621" fill="#E76F00"/>
<path d="M505.206 1695.65C812.598 1715.26 1284.63 1684.77 1295.81 1539.85C1295.81 1539.85 1274.32 1594.78 1041.76 1638.42C779.404 1687.62 455.809 1681.88 263.884 1650.35C263.893 1650.34 303.178 1682.74 505.206 1695.65" fill="#5382A1"/>
</svg>
