<svg width="195" height="920" viewBox="0 0 195 920" fill="none" xmlns="http://www.w3.org/2000/svg">
<path d="M109.5 0H85.5V432C62 439 51.8279 457.376 49.4626 471C45.6939 489.99 51.7543 507.258 68.5 520C26.1493 580.499 18.7306 633.259 24.2504 749C21.5733 799.879 16.9816 827.556 0 874.5C15.6922 905.369 55.0139 920.43 104 919.882C150.909 916.346 182.106 900.462 195 874.5C180.483 835.09 176.113 812.307 172 771C169.08 751.355 168.938 739.736 171.2 718C173.207 686.965 172.833 669.558 170 638.5C161.338 579.062 151.83 553.267 127 520C141.933 506.19 148.59 491.484 146.945 475C144.429 453.928 131.769 439.607 109.5 432V0Z" fill="#D9D9D9"/>
</svg>
